PathFileType	4	(X/Y/Z)	/Users/itak/Documents/Research/Walk-IL/dataset/trc/00058_00006.trc
DataRate	CameraRate	NumFrames	NumMarkers	Units	OrigDataRate	OrigDataStartFrame	OrigNumFrames
100.000000	100.000000	4	53	mm	100.000000	0	821
Frame#	Time	RPSI			LPSI			L3			STRN			T10			C7			CLAV			RBAK			LBAK			LSHO			LUPA			LAEL			LAOL			LWTS			LWPS			LFRA			LIFD			LHPS			LHTS			RSHO			RUPA			RAEL			RAOL			RWTS			RWPS			RFRA			RIFD			RHTS			RHPS			RBHD			LFHD			RFHD			LBHD			LHIP			RHIP			RASI			LASI			LKNE			LTHI			LANK			LTIP			LTOE			LMT1			LMT5			LHEE			RKNE			RTHI			RANK			RTIP			RTOE			RMT1			RMT5			RHEE			
		X1	Y1	Z1	X2	Y2	Z2	X3	Y3	Z3	X4	Y4	Z4	X5	Y5	Z5	X6	Y6	Z6	X7	Y7	Z7	X8	Y8	Z8	X9	Y9	Z9	X10	Y10	Z10	X11	Y11	Z11	X12	Y12	Z12	X13	Y13	Z13	X14	Y14	Z14	X15	Y15	Z15	X16	Y16	Z16	X17	Y17	Z17	X18	Y18	Z18	X19	Y19	Z19	X20	Y20	Z20	X21	Y21	Z21	X22	Y22	Z22	X23	Y23	Z23	X24	Y24	Z24	X25	Y25	Z25	X26	Y26	Z26	X27	Y27	Z27	X28	Y28	Z28	X29	Y29	Z29	X30	Y30	Z30	X31	Y31	Z31	X32	Y32	Z32	X33	Y33	Z33	X34	Y34	Z34	X35	Y35	Z35	X36	Y36	Z36	X37	Y37	Z37	X38	Y38	Z38	X39	Y39	Z39	X40	Y40	Z40	X41	Y41	Z41	X42	Y42	Z42	X43	Y43	Z43	X44	Y44	Z44	X45	Y45	Z45	X46	Y46	Z46	X47	Y47	Z47	X48	Y48	Z48	X49	Y49	Z49	X50	Y50	Z50	X51	Y51	Z51	X52	Y52	Z52	X53	Y53	Z53	

1	0	-99.40907287597656	1041.777587890625	1267.497680664062	-111.0427703857422	1036.066772460938	1092.436401367188	-100.2691116333008	1084.315307617188	1171.860717773438	138.0019073486328	1289.51416015625	1174.927734375	-125.9374008178711	1216.542602539062	1164.068359375	-77.57697296142578	1485.786499023438	1159.5234375	-137.8844909667969	1345.619995117188	1233.93212890625	104.1762390136719	1402.693603515625	1170.850708007812	-93.05361175537109	1446.519287109375	1058.178588867188	13.93104362487793	1452.726440429688	990.2103881835938	6.329480171203613	1323.578369140625	914.441650390625	37.08529281616211	1108.064453125	904.7081909179688	-31.26355361938477	1093.1845703125	985.4938354492188	139.4034118652344	879.4303588867188	989.179443359375	86.77101135253906	860.3274536132812	926.275390625	65.16938018798828	999.7213134765625	905.3284301757812	169.2371978759766	696.411376953125	1018.064331054688	124.7901153564453	782.2874755859375	938.9513549804688	167.2233276367188	798.9710693359375	993.4021606445312	-19.3314037322998	1452.554565429688	1338.782470703125	-29.9238452911377	1381.991455078125	1402.41455078125	-45.18845748901367	1114.065795898438	1427.60595703125	-29.27323532104492	1096.26318359375	1333.418334960938	112.898681640625	872.3908081054688	1384.56494140625	43.53514099121094	850.3497314453125	1433.077880859375	-26.60345268249512	1034.705322265625	1432.524780273438	136.3960418701172	684.1976318359375	1368.152587890625	143.7391815185547	772.02685546875	1383.135131835938	87.52405548095703	764.7994995117188	1434.152221679688	-40.06502151489258	1670.29833984375	1096.91455078125	114.4075088500977	1699.86865234375	1244.442260742188	132.8005523681641	1706.57421875	1119.636840820312	-51.37937927246094	1655.871826171875	1233.362670898438	-12.68385219573975	965.754638671875	1003.164733886719	-34.89523315429688	969.1478881835938	1343.996826171875	91.98886108398438	981.2789306640625	1322.534301757812	104.1509246826172	972.8604736328125	1053.135131835938	20.13792037963867	498.8760070800781	1046.424560546875	2.727200269699097	641.72509765625	1010.747497558594	-78.86896514892578	51.8566780090332	1027.816284179688	-40.056640625	268.2012023925781	1022.12255859375	127.3209457397461	44.19138336181641	1024.812744140625	80.67650604248047	43.51591491699219	1080.918823242188	22.20116996765137	41.78284072875977	985.3604125976562	-128.7179260253906	49.13811492919922	1105.131958007812	18.90971374511719	519.4134521484375	1327.506591796875	40.65070724487305	791.2373046875	1354.530883789062	-58.58181381225586	45.75682067871094	1327.8251953125	-5.422898292541504	401.1201477050781	1335.546997070312	157.6276245117188	41.38308334350586	1294.2880859375	96.7677001953125	47.72979354858398	1253.269287109375	65.90658569335938	47.62649536132812	1345.350830078125	-105.5168609619141	46.62950134277344	1270.672241210938	
2	0.01	-99.35214233398438	1041.794555664062	1267.526977539062	-111.0130233764648	1036.09228515625	1092.451782226562	-100.2285919189453	1084.335693359375	1171.872436523438	138.0671539306641	1289.51806640625	1175.006469726562	-125.8603057861328	1216.577758789062	1164.121704101562	-77.47876739501953	1485.821166992188	1159.583862304688	-137.8300476074219	1345.646118164062	1233.967041015625	104.2342224121094	1402.679931640625	1170.921997070312	-92.93708801269531	1446.563110351562	1058.235961914062	14.0537748336792	1452.73193359375	990.2740478515625	6.424539089202881	1323.591430664062	914.5057983398438	37.08692169189453	1108.052612304688	904.8447265625	-31.34443092346191	1093.228271484375	985.58740234375	138.7403106689453	879.0585327148438	989.146484375	86.18389892578125	860.1774291992188	926.1309814453125	64.95791625976562	999.665283203125	905.3729248046875	168.0924224853516	695.923828125	1017.72021484375	123.9765853881836	782.0516967773438	938.73681640625	166.3393249511719	798.453369140625	993.2672729492188	-19.26443481445312	1452.545776367188	1338.846069335938	-29.89124298095703	1381.982543945312	1402.474487304688	-45.24998474121094	1114.07763671875	1427.669067382812	-29.30239677429199	1096.2607421875	1333.444702148438	112.387580871582	872.1381225585938	1384.768676757812	43.03408050537109	850.2695922851562	1433.34521484375	-26.80802345275879	1034.734741210938	1432.572875976562	135.5763244628906	683.8872680664062	1368.498657226562	143.0625762939453	771.7166748046875	1383.453979492188	86.85562896728516	764.6520385742188	1434.475952148438	-39.96911239624023	1670.331176757812	1097.014526367188	114.4852676391602	1699.86669921875	1244.527221679688	132.863525390625	1706.59521484375	1119.736694335938	-51.31723022460938	1655.881591796875	1233.449340820312	-12.66246700286865	965.7688598632812	1003.177429199219	-34.87037658691406	969.1610717773438	1343.999267578125	92.02411651611328	981.2667236328125	1322.544067382812	104.1611480712891	972.8535766601562	1053.149047851562	20.16744995117188	498.8829345703125	1046.441040039062	2.726274728775024	641.724853515625	1010.748107910156	-78.86378479003906	51.86590194702148	1027.831176757812	-40.05989456176758	268.2041320800781	1022.120056152344	127.3224945068359	44.18776702880859	1024.810302734375	80.67054748535156	43.5218391418457	1080.920532226562	22.2018928527832	41.78729248046875	985.3529052734375	-128.7168121337891	49.13047790527344	1105.133422851562	18.92289543151855	519.4166259765625	1327.505859375	40.65250396728516	791.2622680664062	1354.52587890625	-58.57854461669922	45.76852035522461	1327.823364257812	-5.36361837387085	401.1172790527344	1335.534057617188	157.63330078125	41.37539672851562	1294.287231445312	96.76815032958984	47.72522735595703	1253.267333984375	65.90601348876953	47.62361526489258	1345.347900390625	-105.5204696655273	46.62987518310547	1270.677124023438	
3	0.02	-99.2828369140625	1041.818115234375	1267.565063476562	-110.9782943725586	1036.12451171875	1092.472412109375	-100.1784973144531	1084.361572265625	1171.88623046875	138.1444854736328	1289.520751953125	1175.109252929688	-125.7660140991211	1216.623413085938	1164.182373046875	-77.35272216796875	1485.863159179688	1159.660400390625	-137.7655792236328	1345.681274414062	1234.006591796875	104.3166656494141	1402.659057617188	1171.010009765625	-92.79164886474609	1446.616943359375	1058.303100585938	14.21362781524658	1452.74267578125	990.35400390625	6.545109748840332	1323.613037109375	914.58447265625	37.07752227783203	1108.043090820312	905.0008544921875	-31.45695114135742	1093.292236328125	985.6966552734375	137.9087066650391	878.5952758789062	989.0775146484375	85.43231964111328	859.9952392578125	925.92626953125	64.68259429931641	999.6015014648438	905.41357421875	166.6319885253906	695.3065795898438	1017.265991210938	122.947380065918	781.7606201171875	938.437744140625	165.2472839355469	797.8226318359375	993.0736694335938	-19.1860237121582	1452.534301757812	1338.921508789062	-29.85281562805176	1381.975708007812	1402.5517578125	-45.33735656738281	1114.094970703125	1427.755493164062	-29.33949279785156	1096.261596679688	1333.473266601562	111.7557830810547	871.8297119140625	1385.040893554688	42.39031600952148	850.17138671875	1433.67724609375	-27.08037948608398	1034.77392578125	1432.63525390625	134.5403137207031	683.511474609375	1368.947143554688	142.1904296875	771.3196411132812	1383.838500976562	86.00325775146484	764.4636840820312	1434.882080078125	-39.85640335083008	1670.367919921875	1097.13671875	114.5860290527344	1699.867431640625	1244.632080078125	132.9460601806641	1706.618408203125	1119.858520507812	-51.23054122924805	1655.893798828125	1233.565673828125	-12.63557529449463	965.7858276367188	1003.198425292969	-34.84254837036133	969.1778564453125	1344.005493164062	92.06912994384766	981.2529907226562	1322.556030273438	104.1721496582031	972.8472900390625	1053.166381835938	20.21108627319336	498.8927917480469	1046.464599609375	2.725684881210327	641.7247314453125	1010.750183105469	-78.86111450195312	51.8752555847168	1027.844848632812	-40.06479644775391	268.2080078125	1022.118835449219	127.3237838745117	44.18391799926758	1024.807250976562	80.66529846191406	43.52709197998047	1080.922729492188	22.20328712463379	41.79266357421875	985.34619140625	-128.7168579101562	49.12381362915039	1105.133911132812	18.9372615814209	519.4181518554688	1327.504150390625	40.66731262207031	791.2892456054688	1354.521728515625	-58.57561492919922	45.78201675415039	1327.819458007812	-5.292927742004395	401.1171569824219	1335.522705078125	157.638916015625	41.36696624755859	1294.285888671875	96.76869201660156	47.72117614746094	1253.265380859375	65.90624237060547	47.62001800537109	1345.345336914062	-105.5239486694336	46.63029479980469	1270.680297851562	
4	0.03	-99.20281982421875	1041.848022460938	1267.613159179688	-110.9418563842773	1036.161376953125	1092.49853515625	-100.1218490600586	1084.392700195312	1171.90185546875	138.2289276123047	1289.520751953125	1175.232421875	-125.6594619750977	1216.6787109375	1164.245849609375	-77.20261383056641	1485.909912109375	1159.749877929688	-137.6953277587891	1345.724487304688	1234.047241210938	104.4246673583984	1402.630737304688	1171.110961914062	-92.62331390380859	1446.677612304688	1058.374267578125	14.40652179718018	1452.760375976562	990.447021484375	6.687429904937744	1323.644775390625	914.6734619140625	37.05168533325195	1108.038818359375	905.1624145507812	-31.60282707214355	1093.37744140625	985.8114013671875	136.9487457275391	878.0634155273438	988.960693359375	84.54383087158203	859.7927856445312	925.6583251953125	64.3507080078125	999.53564453125	905.44091796875	164.9129333496094	694.5873413085938	1016.709533691406	121.7419586181641	781.4295043945312	938.0526733398438	163.9962005615234	797.1134643554688	992.8164672851562	-19.10116577148438	1452.520263671875	1339.00390625	-29.81109619140625	1381.973388671875	1402.644287109375	-45.45164108276367	1114.1171875	1427.86376953125	-29.38287162780762	1096.267578125	1333.49951171875	111.0337448120117	871.4818725585938	1385.377563476562	41.62963104248047	850.0606079101562	1434.061767578125	-27.41379547119141	1034.82177734375	1432.710083007812	133.3271026611328	683.0863647460938	1369.49072265625	141.1498870849609	770.8489379882812	1384.27587890625	84.99506378173828	764.2437744140625	1435.357177734375	-39.7352180480957	1670.404907226562	1097.274658203125	114.7071685791016	1699.871459960938	1244.751220703125	133.0458831787109	1706.641479492188	1119.994384765625	-51.11867523193359	1655.908325195312	1233.710205078125	-12.60428524017334	965.804931640625	1003.229370117188	-34.81365203857422	969.1979370117188	1344.0166015625	92.12165069580078	981.2388305664062	1322.570190429688	104.1825790405273	972.8422241210938	1053.187377929688	20.2680606842041	498.9051208496094	1046.494750976562	2.725494623184204	641.7249145507812	1010.754760742188	-78.86121368408203	51.88375854492188	1027.8564453125	-40.07094192504883	268.2129516601562	1022.119812011719	127.3251571655273	44.18025588989258	1024.804565429688	80.66136932373047	43.5304069519043	1080.925048828125	22.20496368408203	41.79800033569336	985.3414916992188	-128.7176666259766	49.11910629272461	1105.133666992188	18.95231819152832	519.4181518554688	1327.502197265625	40.70551300048828	791.3124389648438	1354.517822265625	-58.57312393188477	45.79559707641602	1327.813232421875	-5.216262817382812	401.1196899414062	1335.514770507812	157.6439208984375	41.35845184326172	1294.284423828125	96.76947784423828	47.71785736083984	1253.263793945312	65.90743255615234	47.61596298217773	1345.343505859375	-105.5266723632812	46.63129425048828	1270.680908203125	
